<svg width="49" height="19" viewBox="0 0 49 19" fill="none" xmlns="http://www.w3.org/2000/svg">
<path d="M39.3136 0H42.3077V4.91742H39.3136V0ZM39.2995 6.8531H42.2936V11.7705H39.2995V6.8531ZM39.2995 13.8284H42.2936V18.7458H39.2995V13.8284ZM6.95977 0.219964H9.95393V5.13738H6.95977V0.219964ZM6.94569 7.07306H9.93985V11.9905H6.94569V7.07306ZM6.94569 14.0484H9.93985V18.9658H6.94569V14.0484ZM0 7.11217H2.99416V12.0296H0V7.11217ZM0 14.0826H2.99416V19H0V14.0826ZM46.0058 6.87265H49V11.7901H46.0058V6.87265ZM46.0058 13.848H49V18.7654H46.0058V13.848Z" fill="#8A418C"/>
</svg>
