<svg width="60" height="65" viewBox="0 0 60 65" fill="none" xmlns="http://www.w3.org/2000/svg">
<path d="M52.5 20.1724H7.5C5.51149 20.1742 3.60498 20.8832 2.19889 22.1438C0.792799 23.4045 0.00198554 25.1137 0 26.8966V40.3448C0.00132369 41.5334 0.528533 42.6729 1.46593 43.5133C2.40332 44.3537 3.67432 44.8264 5 44.8276V60.5172C5.00132 61.7058 5.52853 62.8453 6.46593 63.6857C7.40332 64.5261 8.67432 64.9988 10 65H20C21.3257 64.9988 22.5967 64.5261 23.5341 63.6857C24.4715 62.8453 24.9987 61.7058 25 60.5172V33.6207H20V60.5172H10V40.3448H5V26.8966C5 26.3021 5.26339 25.732 5.73223 25.3117C6.20107 24.8913 6.83696 24.6552 7.5 24.6552H52.5C53.163 24.6552 53.7989 24.8913 54.2678 25.3117C54.7366 25.732 55 26.3021 55 26.8966V40.3448H50V60.5172H40V33.6207H35V60.5172C35.0013 61.7058 35.5285 62.8453 36.4659 63.6857C37.4033 64.5261 38.6743 64.9988 40 65H50C51.3257 64.9988 52.5967 64.5261 53.5341 63.6857C54.4715 62.8453 54.9987 61.7058 55 60.5172V44.8276C56.3257 44.8264 57.5967 44.3537 58.5341 43.5133C59.4715 42.6729 59.9987 41.5334 60 40.3448V26.8966C59.998 25.1137 59.2072 23.4045 57.8011 22.1438C56.395 20.8832 54.4885 20.1742 52.5 20.1724ZM15 17.931C13.0222 17.931 11.0888 17.4052 9.4443 16.4201C7.79981 15.4349 6.51808 14.0347 5.7612 12.3965C5.00433 10.7582 4.8063 8.95558 5.19215 7.21644C5.578 5.4773 6.53041 3.87979 7.92893 2.62594C9.32746 1.37209 11.1093 0.51821 13.0491 0.172274C14.9889 -0.173663 16.9996 0.00388459 18.8268 0.682463C20.6541 1.36104 22.2159 2.51017 23.3147 3.98455C24.4135 5.45892 25 7.19231 25 8.96552C24.9974 11.3426 23.9429 13.6216 22.0681 15.3025C20.1934 16.9833 17.6514 17.9287 15 17.931ZM15 4.48276C14.0111 4.48276 13.0444 4.74567 12.2221 5.23824C11.3999 5.73082 10.759 6.43093 10.3806 7.25004C10.0022 8.06916 9.90315 8.97049 10.0961 9.84006C10.289 10.7096 10.7652 11.5084 11.4645 12.1353C12.1637 12.7622 13.0546 13.1892 14.0245 13.3621C14.9945 13.5351 15.9998 13.4463 16.9134 13.1071C17.827 12.7678 18.6079 12.1932 19.1573 11.456C19.7068 10.7188 20 9.85213 20 8.96552C19.9987 7.77698 19.4715 6.63747 18.5341 5.79704C17.5967 4.95662 16.3257 4.48395 15 4.48276ZM45 17.931C43.0222 17.931 41.0888 17.4052 39.4443 16.4201C37.7998 15.4349 36.5181 14.0347 35.7612 12.3965C35.0043 10.7582 34.8063 8.95558 35.1921 7.21644C35.578 5.4773 36.5304 3.87979 37.9289 2.62594C39.3275 1.37209 41.1093 0.51821 43.0491 0.172274C44.9889 -0.173663 46.9996 0.00388459 48.8268 0.682463C50.6541 1.36104 52.2159 2.51017 53.3147 3.98455C54.4135 5.45892 55 7.19231 55 8.96552C54.9974 11.3426 53.9429 13.6216 52.0681 15.3025C50.1934 16.9833 47.6514 17.9287 45 17.931ZM45 4.48276C44.0111 4.48276 43.0444 4.74567 42.2221 5.23824C41.3999 5.73082 40.759 6.43093 40.3806 7.25004C40.0022 8.06916 39.9031 8.97049 40.0961 9.84006C40.289 10.7096 40.7652 11.5084 41.4645 12.1353C42.1637 12.7622 43.0546 13.1892 44.0245 13.3621C44.9945 13.5351 45.9998 13.4463 46.9134 13.1071C47.827 12.7678 48.6079 12.1932 49.1573 11.456C49.7068 10.7188 50 9.85213 50 8.96552C49.9987 7.77698 49.4715 6.63747 48.5341 5.79704C47.5967 4.95662 46.3257 4.48395 45 4.48276Z" fill="#FFD233"/>
</svg>
