<svg width="60" height="64" viewBox="0 0 60 64" fill="none" xmlns="http://www.w3.org/2000/svg">
<path d="M57.375 15.4621V34.6907H32.5312V15.4621C32.5312 -2.4779 57.375 -2.4779 57.375 15.4621Z" fill="#FFB300"/>
<path d="M54.75 44.0076L47.8125 31.5189C46.6875 29.5366 49.3125 28.4463 50.3437 30.4287L57.2812 42.9173L54.75 44.0076Z" fill="#FF4848"/>
<path d="M54.75 44.0076C56.0625 46.3864 56.7188 46.2873 57.375 45.8908C58.125 45.5934 58.5938 45.197 57.2812 42.8182L54.75 44.0076ZM56.625 19.2285C56.625 15.5612 54 17.4445 54 17.4445C54.1875 12.2904 51.9375 11.7948 51.9375 11.7948C41.3438 11.7948 35.9062 17.4445 35.9062 17.4445C35.9062 17.4445 33.2812 15.5612 33.2812 19.2285C33.2812 20.6162 33.75 21.8056 35.4375 21.9047C36.1875 27.5543 39.75 28.7437 45 28.7437C50.25 28.7437 53.7188 27.5543 54.4688 21.9047C56.1562 21.8056 56.625 20.6162 56.625 19.2285Z" fill="#FFDD67"/>
<path d="M42.1875 27.1578H47.7188V31.5189H42.1875V27.1578ZM46.875 61.452V46.4855C46.875 44.1067 49.7812 44.1067 49.7812 46.4855V61.452H46.875Z" fill="#FFDD67"/>
<path d="M45.75 59.4697C46.6875 58.3794 49.9688 58.3794 50.9062 59.4697V61.452H45.75V59.4697Z" fill="#FF4848"/>
<path d="M40.2188 61.452V46.4855C40.2188 44.1067 43.125 44.1067 43.125 46.4855V61.452H40.2188Z" fill="#FFDD67"/>
<path d="M44.1562 59.4697C43.2187 58.3794 39.9375 58.3794 39 59.4697V61.452H44.1562V59.4697ZM48.6563 29.4375H47.7188C47.7188 30.3295 46.5 31.0234 44.9063 31.0234C43.4063 31.0234 42.0938 30.3295 42.0938 29.4375H41.1563C39.8438 30.5278 40.0312 35.6818 39 40.8359C37.7812 47.1793 35.625 51.1439 35.625 51.1439H54C54 51.1439 51.8438 47.1793 50.625 40.8359C49.875 35.5827 49.9688 30.4287 48.6563 29.4375Z" fill="#FF4848"/>
<path d="M2.625 15.4621V34.6907H27.375V15.4621C27.4688 -2.4779 2.625 -2.4779 2.625 15.4621Z" fill="#FFB300"/>
<path d="M3.375 19.2285C3.375 15.5612 6 17.4444 6 17.4444C10.2188 14.6692 10.2188 9.71338 10.2188 9.71338C10.6875 14.1736 24.0938 17.4444 24.0938 17.4444C24.0938 17.4444 26.7188 15.5612 26.7188 19.2285C26.7188 20.6162 26.25 21.8056 24.5625 21.9047C23.8125 27.5543 20.25 28.7437 15 28.7437C9.75 28.7437 6.1875 27.5543 5.53125 21.9047C3.84375 21.8056 3.375 20.6162 3.375 19.2285ZM5.25 44.0076L12.1875 31.5189C13.3125 29.5366 10.6875 28.4463 9.65625 30.4287L2.71875 42.9173L5.25 44.0076Z" fill="#FFDD67"/>
<path d="M5.24997 44.0076C3.93747 46.3864 3.28122 46.2872 2.62497 45.8908C1.87497 45.5934 1.40622 45.197 2.71872 42.8182L5.24997 44.0076ZM27.75 41.6288L17.5312 31.9154C15.9375 30.4287 18 28.5454 19.6875 30.0322L29.9062 39.7456L27.75 41.6288Z" fill="#FFDD67"/>
<path d="M27.75 41.6288C29.7187 43.512 30.2813 43.1155 30.8438 42.6199C31.4063 42.1244 31.7812 41.5297 29.8125 39.7456L27.75 41.6288Z" fill="#FFDD67"/>
<path d="M31.7813 41.6288L42 31.9154C43.5938 30.4287 41.5312 28.5454 39.8438 30.0322L29.625 39.7456L31.7813 41.6288Z" fill="#FF4848"/>
<path d="M31.7813 41.6288C29.8125 43.512 29.25 43.1155 28.6875 42.62C28.125 42.1244 27.75 41.5297 29.7188 39.7456L31.7813 41.6288ZM12.2813 27.1578H17.8125V31.5189H12.2813V27.1578ZM13.125 61.452V46.4855C13.125 44.1067 10.2188 44.1067 10.2188 46.4855V61.452H13.125Z" fill="#FFDD67"/>
<path d="M14.25 59.4697C13.3125 58.3794 10.0312 58.3794 9.09375 59.4697V61.452H14.25V59.4697Z" fill="#C28FEF"/>
<path d="M19.7813 61.452V46.4855C19.7813 44.1067 16.875 44.1067 16.875 46.4855V61.452H19.7813Z" fill="#FFDD67"/>
<path d="M15.8438 59.4697C16.7812 58.3794 20.0625 58.3794 21 59.4697V61.452H15.8438V59.4697ZM11.3438 29.4375H12.2813C12.2813 30.3295 13.5 31.0234 15.0938 31.0234C16.5938 31.0234 17.9063 30.3295 17.9063 29.4375H18.8438C20.1563 30.5278 21.5625 48.2696 21.5625 48.2696H8.625C8.625 48.2696 10.0313 30.4287 11.3438 29.4375Z" fill="#C28FEF"/>
<path d="M40.6875 20.4179C41.6713 20.4179 42.4687 19.5748 42.4687 18.5347C42.4687 17.4947 41.6713 16.6515 40.6875 16.6515C39.7037 16.6515 38.9062 17.4947 38.9062 18.5347C38.9062 19.5748 39.7037 20.4179 40.6875 20.4179Z" fill="#937237"/>
<path d="M49.3125 20.4179C50.2963 20.4179 51.0937 19.5748 51.0937 18.5347C51.0937 17.4947 50.2963 16.6515 49.3125 16.6515C48.3287 16.6515 47.5312 17.4947 47.5312 18.5347C47.5312 19.5748 48.3287 20.4179 49.3125 20.4179Z" fill="#937237"/>
<path d="M47.8125 24.1843C46.0312 25.6711 43.9687 25.6711 42.1875 24.1843C42 23.9861 41.8125 24.2834 41.9062 24.5808C42.4687 25.6711 43.5937 26.5631 45 26.5631C46.4062 26.5631 47.5312 25.572 48.0937 24.5808C48.2812 24.3826 48.0937 24.0852 47.8125 24.1843Z" fill="#937237"/>
<path d="M10.5938 20.4179C11.5775 20.4179 12.375 19.5748 12.375 18.5347C12.375 17.4947 11.5775 16.6515 10.5938 16.6515C9.60999 16.6515 8.8125 17.4947 8.8125 18.5347C8.8125 19.5748 9.60999 20.4179 10.5938 20.4179Z" fill="#937237"/>
<path d="M19.2187 20.4179C20.2025 20.4179 21 19.5748 21 18.5347C21 17.4947 20.2025 16.6515 19.2187 16.6515C18.235 16.6515 17.4375 17.4947 17.4375 18.5347C17.4375 19.5748 18.235 20.4179 19.2187 20.4179Z" fill="#937237"/>
<path d="M17.7187 24.1843C15.9375 25.6711 13.875 25.6711 12.0937 24.1843C11.9062 23.9861 11.7187 24.2834 11.8125 24.5808C12.375 25.6711 13.5 26.5631 14.9062 26.5631C16.3125 26.5631 17.4375 25.572 18 24.5808C18.0937 24.3826 17.9062 24.0852 17.7187 24.1843Z" fill="#937237"/>
</svg>
