<svg width="25" height="26" viewBox="0 0 25 26" fill="none" xmlns="http://www.w3.org/2000/svg">
<path d="M12.5 0C9.186 0.00314134 6.00885 1.06231 3.66549 2.94518C1.32214 4.82804 0.00392292 7.38085 1.32987e-05 10.0436C-0.00395589 12.2196 0.880672 14.3366 2.51819 16.0698C2.51819 16.0698 2.8591 16.4304 2.91478 16.4825L12.5 25.5656L22.0898 16.4779C22.1398 16.4295 22.4818 16.0698 22.4818 16.0698L22.4829 16.067C24.1197 14.3346 25.0039 12.2186 25 10.0436C24.9961 7.38085 23.6779 4.82804 21.3345 2.94518C18.9912 1.06231 15.814 0.00314134 12.5 0ZM17.2841 10.6846L12.5034 14.6089L7.71591 10.6846C7.14107 10.2077 6.81966 9.56984 6.81966 8.90595C6.81966 8.24205 7.14107 7.6042 7.71591 7.12731C7.9978 6.89451 8.33491 6.70946 8.70731 6.58311C9.07971 6.45675 9.47985 6.39165 9.88409 6.39165C10.2883 6.39165 10.6885 6.45675 11.0609 6.58311C11.4333 6.70946 11.7704 6.89451 12.0523 7.12731L12.5034 7.4971L12.95 7.12731C13.2319 6.89451 13.569 6.70946 13.9414 6.58311C14.3138 6.45675 14.7139 6.39165 15.1182 6.39165C15.5224 6.39165 15.9226 6.45675 16.295 6.58311C16.6674 6.70946 17.0045 6.89451 17.2864 7.12731C17.8612 7.6042 18.1826 8.24205 18.1826 8.90595C18.1826 9.56984 17.8612 10.2077 17.2864 10.6846H17.2841Z" fill="white"/>
</svg>
