<svg width="20" height="20" viewBox="0 0 20 20" fill="none" xmlns="http://www.w3.org/2000/svg">
<path d="M18.3644 1.84705C17.33 0.671483 15.8804 0.00260272 14.3617 0.000123094C12.8417 0.00198282 11.3906 0.670509 10.3546 1.8463L10.0015 2.24078L9.64836 1.8463C7.59251 -0.493014 4.13215 -0.627357 1.91953 1.54617C1.82148 1.64252 1.72679 1.74259 1.63565 1.8463C-0.545218 4.33328 -0.545218 8.17679 1.63565 10.6638L9.48255 19.4125C9.75403 19.7155 10.2064 19.7285 10.493 19.4414C10.5024 19.4321 10.5115 19.4224 10.5204 19.4125L18.3645 10.6638C20.5452 8.17706 20.5452 4.33376 18.3644 1.84705ZM17.3302 9.62317H17.3295L10.0015 17.7945L2.67282 9.62317C1.00676 7.72289 1.00676 4.78643 2.67282 2.88615C4.1858 1.15244 6.74172 1.04374 8.38156 2.64332C8.46118 2.72099 8.53778 2.80197 8.61124 2.88615L9.48255 3.85799C9.76969 4.15962 10.2333 4.15962 10.5204 3.85799L11.3917 2.8869C12.9047 1.1532 15.4606 1.04449 17.1005 2.64407C17.1801 2.72174 17.2567 2.80273 17.3302 2.8869C19.0107 4.79019 19.023 7.73201 17.3302 9.62317Z" fill="#4152CA"/>
</svg>
