<svg width="40" height="40" viewBox="0 0 40 40" fill="none" xmlns="http://www.w3.org/2000/svg">
<path fill-rule="evenodd" clip-rule="evenodd" d="M29.1818 20.0909C29.1818 22.502 28.224 24.8143 26.5192 26.5192C24.8143 28.224 22.502 29.1818 20.0909 29.1818C17.6799 29.1818 15.3675 28.224 13.6627 26.5192C11.9578 24.8143 11 22.502 11 20.0909C11 17.6799 11.9578 15.3675 13.6627 13.6627C15.3675 11.9578 17.6799 11 20.0909 11C22.502 11 24.8143 11.9578 26.5192 13.6627C28.224 15.3675 29.1818 17.6799 29.1818 20.0909ZM24.6364 20.0909C24.6364 21.2964 24.1575 22.4526 23.305 23.305C22.4526 24.1575 21.2964 24.6364 20.0909 24.6364C18.8854 24.6364 17.7292 24.1575 16.8768 23.305C16.0244 22.4526 15.5455 21.2964 15.5455 20.0909C15.5455 18.8854 16.0244 17.7292 16.8768 16.8768C17.7292 16.0243 18.8854 15.5455 20.0909 15.5455C21.2964 15.5455 22.4526 16.0243 23.305 16.8768C24.1575 17.7292 24.6364 18.8854 24.6364 20.0909Z" fill="#4ECB71"/>
<path fill-rule="evenodd" clip-rule="evenodd" d="M20 0C8.95455 0 0 8.95455 0 20C0 31.0455 8.95455 40 20 40C31.0455 40 40 31.0455 40 20C40 8.95455 31.0455 0 20 0ZM3.63636 20C3.63636 23.8 4.93273 27.2982 7.10545 30.0764C8.63133 28.0725 10.5998 26.4486 12.8572 25.3315C15.1145 24.2143 17.5995 23.6342 20.1182 23.6364C22.6042 23.634 25.058 24.1991 27.2926 25.2887C29.5272 26.3783 31.4836 27.9635 33.0127 29.9236C34.5881 27.8575 35.6488 25.4458 36.1071 22.8883C36.5654 20.3308 36.4081 17.701 35.6482 15.2163C34.8883 12.7317 33.5477 10.4637 31.7372 8.60007C29.9268 6.73641 27.6986 5.33065 25.2371 4.49911C22.7755 3.66756 20.1513 3.43413 17.5816 3.81813C15.0119 4.20214 12.5705 5.19253 10.4596 6.70737C8.34863 8.22221 6.62875 10.2179 5.44223 12.5294C4.25572 14.8409 3.63669 17.4018 3.63636 20ZM20 36.3636C16.2435 36.3693 12.6005 35.077 9.68727 32.7055C10.8599 31.0268 12.4206 29.6562 14.2367 28.7103C16.0528 27.7645 18.0705 27.2713 20.1182 27.2727C22.1403 27.2711 24.1336 27.752 25.9326 28.6753C27.7316 29.5987 29.2843 30.9379 30.4618 32.5818C27.526 35.0304 23.8229 36.369 20 36.3636Z" fill="#4ECB71"/>
</svg>
