<svg width="16" height="17" viewBox="0 0 16 17" fill="none" xmlns="http://www.w3.org/2000/svg">
<path d="M0.266665 16.352H1.86667V7.04826C1.86667 6.89256 1.98607 6.76633 2.13333 6.76633H5.86667V0.28193C5.86667 0.126234 5.98607 0 6.13333 0H13.0667C13.2139 0 13.3333 0.126234 13.3333 0.28193V16.352H15.7333C15.8806 16.352 16 16.4782 16 16.6339C16 16.7896 15.8806 16.9158 15.7333 16.9158H0.266665C0.119399 16.9158 0 16.7896 0 16.6339C0 16.4782 0.119399 16.352 0.266665 16.352ZM10.4 16.352H11.4667V13.8146C11.4667 13.6589 11.3473 13.5327 11.2 13.5327H10.6667C10.5194 13.5327 10.4 13.6589 10.4 13.8146V16.352ZM9.33333 7.04826V16.352H9.86667V13.8146C9.86667 13.3475 10.2248 12.9688 10.6667 12.9688H11.2C11.6418 12.9688 12 13.3475 12 13.8146V16.352H12.8V0.563861H6.4V6.76633H9.06667C9.21393 6.76633 9.33333 6.89256 9.33333 7.04826ZM2.4 16.352H8.8V7.33019H2.4V16.352Z" fill="#84829A"/>
<path d="M7.46683 3.94713H9.06683C9.2141 3.94713 9.3335 4.07336 9.3335 4.22906V5.92064C9.3335 6.07634 9.2141 6.20257 9.06683 6.20257H7.46683C7.31956 6.20257 7.20016 6.07634 7.20016 5.92064V4.22906C7.20016 4.07336 7.31956 3.94713 7.46683 3.94713ZM7.7335 5.63871H8.80016V4.51099H7.7335V5.63871Z" fill="#84829A"/>
<path d="M7.46683 1.12774H9.06683C9.2141 1.12774 9.3335 1.25397 9.3335 1.40967V3.10125C9.3335 3.25695 9.2141 3.38318 9.06683 3.38318H7.46683C7.31956 3.38318 7.20016 3.25695 7.20016 3.10125V1.40967C7.20016 1.25397 7.31956 1.12774 7.46683 1.12774ZM7.7335 2.81932H8.80016V1.6916H7.7335V2.81932Z" fill="#84829A"/>
<path d="M10.1333 3.94713H11.7333C11.8806 3.94713 12 4.07336 12 4.22906V5.92064C12 6.07634 11.8806 6.20257 11.7333 6.20257H10.1333C9.98607 6.20257 9.86667 6.07634 9.86667 5.92064V4.22906C9.86667 4.07336 9.98607 3.94713 10.1333 3.94713ZM10.4 5.63871H11.4667V4.51099H10.4V5.63871Z" fill="#84829A"/>
<path d="M10.1333 1.12774H11.7333C11.8806 1.12774 12 1.25397 12 1.40967V3.10125C12 3.25695 11.8806 3.38318 11.7333 3.38318H10.1333C9.98607 3.38318 9.86667 3.25695 9.86667 3.10125V1.40967C9.86667 1.25397 9.98607 1.12774 10.1333 1.12774ZM10.4 2.81932H11.4667V1.6916H10.4V2.81932Z" fill="#84829A"/>
<path d="M10.1333 6.76626H11.7333C11.8806 6.76626 12 6.89249 12 7.04819V8.73977C12 8.89547 11.8806 9.0217 11.7333 9.0217H10.1333C9.98607 9.0217 9.86667 8.89547 9.86667 8.73977V7.04819C9.86667 6.89249 9.98607 6.76626 10.1333 6.76626ZM10.4 8.45784H11.4667V7.33012H10.4V8.45784Z" fill="#84829A"/>
<path d="M10.1333 9.58565H11.7333C11.8806 9.58565 12 9.71188 12 9.86758V11.5592C12 11.7149 11.8806 11.8411 11.7333 11.8411H10.1333C9.98607 11.8411 9.86667 11.7149 9.86667 11.5592V9.86758C9.86667 9.71188 9.98607 9.58565 10.1333 9.58565ZM10.4 11.2772H11.4667V10.1495H10.4V11.2772Z" fill="#84829A"/>
<path d="M5.06683 12.9688H3.46683C3.31956 12.9688 3.20016 12.8426 3.20016 12.6869V10.9953C3.20016 10.8396 3.31956 10.7134 3.46683 10.7134H5.06683C5.2141 10.7134 5.3335 10.8396 5.3335 10.9953V12.6869C5.3335 12.8426 5.2141 12.9688 5.06683 12.9688ZM4.80016 11.2772H3.7335V12.4049H4.80016V11.2772Z" fill="#84829A"/>
<path d="M5.06683 10.1494H3.46683C3.31956 10.1494 3.20016 10.0232 3.20016 9.86748V8.1759C3.20016 8.0202 3.31956 7.89397 3.46683 7.89397H5.06683C5.2141 7.89397 5.3335 8.0202 5.3335 8.1759V9.86748C5.3335 10.0232 5.2141 10.1494 5.06683 10.1494ZM4.80016 8.45783H3.7335V9.58555H4.80016V8.45783Z" fill="#84829A"/>
<path d="M5.06683 15.7882H3.46683C3.31956 15.7882 3.20016 15.662 3.20016 15.5063V13.8147C3.20016 13.659 3.31956 13.5327 3.46683 13.5327H5.06683C5.2141 13.5327 5.3335 13.659 5.3335 13.8147V15.5063C5.3335 15.662 5.2141 15.7882 5.06683 15.7882ZM4.80016 14.0966H3.7335V15.2243H4.80016V14.0966Z" fill="#84829A"/>
<path d="M7.73333 12.9688H6.13333C5.98607 12.9688 5.86667 12.8426 5.86667 12.6869V10.9953C5.86667 10.8396 5.98607 10.7134 6.13333 10.7134H7.73333C7.8806 10.7134 8 10.8396 8 10.9953V12.6869C8 12.8426 7.8806 12.9688 7.73333 12.9688ZM7.46667 11.2772H6.4V12.4049H7.46667V11.2772Z" fill="#84829A"/>
<path d="M7.73333 10.1494H6.13333C5.98607 10.1494 5.86667 10.0232 5.86667 9.86748V8.1759C5.86667 8.0202 5.98607 7.89397 6.13333 7.89397H7.73333C7.8806 7.89397 8 8.0202 8 8.1759V9.86748C8 10.0232 7.8806 10.1494 7.73333 10.1494ZM7.46667 8.45783H6.4V9.58555H7.46667V8.45783Z" fill="#84829A"/>
<path d="M7.73333 15.7882H6.13333C5.98607 15.7882 5.86667 15.662 5.86667 15.5063V13.8147C5.86667 13.659 5.98607 13.5327 6.13333 13.5327H7.73333C7.8806 13.5327 8 13.659 8 13.8147V15.5063C8 15.662 7.8806 15.7882 7.73333 15.7882ZM7.46667 14.0966H6.4V15.2243H7.46667V14.0966Z" fill="#84829A"/>
</svg>
