<svg width="113" height="72" viewBox="0 0 113 72" fill="none" xmlns="http://www.w3.org/2000/svg">
<path d="M71.659 37.812C70.2954 38.1243 68.9666 38.6957 67.7551 39.4903C64.599 41.5102 62.7586 44.378 63.6448 45.8951C64.5309 47.4121 67.8078 47.0036 70.9639 44.9836C72.1916 44.2168 73.283 43.2395 74.1708 42.1122C74.5829 41.5677 74.6583 40.8917 74.3633 40.3885L73.2121 38.4177C72.9192 37.9128 72.3097 37.6755 71.659 37.812Z" fill="#D5D6DB"/>
<path d="M63.7413 10.7249C62.7526 10.9515 61.789 11.366 60.9104 11.9422C58.6225 13.4066 57.2872 15.486 57.9293 16.5851C58.5713 17.6842 60.9483 17.3877 63.236 15.9235C64.1262 15.3672 64.9175 14.6582 65.5614 13.8408C65.8598 13.4461 65.9143 12.9563 65.7005 12.5915L64.867 11.1645C64.6549 10.7985 64.2132 10.626 63.7413 10.7249Z" fill="#D5D6DB"/>
<path d="M50.8836 11.9237C50.6637 11.9005 50.4289 11.9603 50.2252 12.0911L44.8505 15.5317C44.401 15.8187 44.22 16.3672 44.4467 16.7572C44.4986 16.8465 44.5697 16.9227 44.656 16.9812L57.86 25.9912L75.7817 14.5183L50.8836 11.9237Z" fill="#029BC5"/>
<path d="M107.445 10.4516L58.724 41.1773L29.9157 52.7296L15.231 55.7155L13.623 52.9977L94.8308 2.75816C97.2509 1.25457 99.9451 0.324608 102.641 0.0626612C103.821 -0.0457638 104.987 -0.0135599 106.11 0.158022C107.106 0.302358 108.051 0.586491 108.915 1.00199C109.88 1.47285 111.719 1.51705 112.312 2.46294C112.314 2.4614 113.709 6.81175 107.445 10.4516Z" fill="#E1E6E9"/>
<path d="M59.4148 37.2402L38.28 70.7705C38.0159 71.2413 38.1707 71.7659 38.6254 71.9422C38.9044 72.0504 39.2464 72.0049 39.534 71.8216L44.901 68.4064C45.9333 67.7493 46.8479 66.9169 47.5884 65.9609L88.5337 17.9428L59.4148 37.2402Z" fill="#029BC5"/>
<path d="M6.23865 36.1007C5.8874 35.9829 5.46889 36.0475 5.11519 36.2739L0.674151 39.1171C0.0690276 39.5042 -0.173532 40.243 0.132194 40.7675C0.190444 40.8673 0.266213 40.9549 0.357114 41.0269L12.7562 50.8795L25.8382 42.664L6.23865 36.1007Z" fill="#029BC5"/>
<path d="M16.9492 52.7112L10.2471 62.0594C10.1489 62.1938 10.1715 62.3616 10.2976 62.434C10.3885 62.4862 10.5129 62.476 10.6141 62.408L14.7598 59.7736C14.792 59.7531 14.8212 59.7275 14.8453 59.6984L24.6338 47.8324L16.9492 52.7112Z" fill="#029BC5"/>
<path d="M105.29 0.592271C104.132 0.413712 102.931 0.381174 101.714 0.494859C100.526 2.15209 99.7639 4.01035 99.5051 5.88437C99.4856 6.26061 99.7893 6.52956 100.184 6.48509C100.306 6.47112 100.428 6.42752 100.538 6.35815L108.181 1.47147C107.29 1.03831 106.317 0.742316 105.29 0.592271Z" fill="#029BC5"/>
<path d="M88.6497 9.56719L93.6478 6.39056L98.2768 14.2583L93.2788 17.4349L88.6497 9.56719Z" fill="#D5D6DB"/>
<path d="M85.5159 12.6678C84.9138 13.0517 84.6716 13.7838 84.9754 14.303L85.4677 15.144C85.7916 15.6498 86.534 15.7344 87.1259 15.333C87.6891 14.9507 87.9174 14.2609 87.6477 13.7542L87.1554 12.9132C86.8518 12.3945 86.1181 12.2845 85.5159 12.6678Z" fill="#3A556A"/>
<path d="M81.0362 15.4499C80.434 15.8338 80.1918 16.566 80.4957 17.0851L80.988 17.9262C81.3119 18.4319 82.0542 18.5166 82.6461 18.1151C83.2094 17.7329 83.4376 17.043 83.168 16.5364L82.6757 15.6953C82.3718 15.1768 81.6381 15.0668 81.0362 15.4499Z" fill="#3A556A"/>
<path d="M76.5547 18.2329C75.9532 18.6173 75.7119 19.3485 76.0155 19.8672L76.5078 20.7082C76.8317 21.214 77.574 21.2986 78.1659 20.8972C78.7292 20.5149 78.9574 19.8251 78.6878 19.3185L78.1955 18.4775C77.8916 17.9583 77.1571 17.8488 76.5547 18.2329Z" fill="#3A556A"/>
<path d="M72.0749 21.015C71.4734 21.3994 71.232 22.1307 71.5356 22.6494L72.0279 23.4904C72.3519 23.9962 73.0942 24.0808 73.6861 23.6794C74.2494 23.2971 74.4776 22.6073 74.2079 22.1006L73.7157 21.2596C73.4115 20.7406 72.677 20.6311 72.0749 21.015Z" fill="#3A556A"/>
<path d="M67.5954 23.7973C66.9935 24.1819 66.7521 24.9135 67.0559 25.4324L67.5484 26.2739C67.8521 26.7926 68.5863 26.902 69.1883 26.5183C69.7903 26.1345 70.0322 25.403 69.7285 24.8842L69.2359 24.0428C68.933 23.5236 68.1991 23.4134 67.5967 23.7965C67.5962 23.7968 67.5959 23.797 67.5954 23.7973Z" fill="#3A556A"/>
<path d="M63.1152 26.5794C62.5133 26.964 62.2718 27.6956 62.5756 28.2146L63.0682 29.056C63.3719 29.5747 64.1061 29.6841 64.7081 29.3004C65.3101 28.9167 65.5519 28.1851 65.2483 27.6664L64.7557 26.8249C64.4528 26.3057 63.7189 26.1955 63.1165 26.5786C63.116 26.5789 63.1155 26.5793 63.1152 26.5794Z" fill="#3A556A"/>
<path d="M58.6353 29.3616C58.0334 29.7461 57.7919 30.4777 58.0957 30.9967L58.5883 31.8381C58.8927 32.3563 59.6272 32.4646 60.2286 32.0804C60.8289 31.6968 61.0703 30.9668 60.768 30.4487L60.2755 29.6072C59.9719 29.0882 59.2378 28.9781 58.6353 29.3616Z" fill="#3A556A"/>
<path d="M54.1553 32.1437C53.5535 32.5282 53.312 33.2599 53.6158 33.7788L54.1083 34.6203C54.4128 35.1385 55.1473 35.2468 55.7487 34.8625C56.349 34.479 56.5904 33.7489 56.2881 33.2308L55.7955 32.3894C55.492 31.8703 54.7578 31.7602 54.1553 32.1437Z" fill="#3A556A"/>
<path d="M49.6752 34.9258C49.0733 35.3104 48.8319 36.042 49.1357 36.5609L49.6282 37.4023C49.9327 37.9206 50.6672 38.0288 51.2686 37.6446C51.8689 37.261 52.1103 36.531 51.808 36.0129L51.3154 35.1715C51.0116 34.6526 50.2775 34.5426 49.6752 34.9258Z" fill="#3A556A"/>
<path d="M45.1938 37.7087C44.5918 38.0924 44.35 38.824 44.6536 39.3427L44.6543 39.3438L45.1468 40.1853C45.4513 40.7035 46.1858 40.8118 46.7872 40.4275C47.3875 40.044 47.6289 39.3139 47.3266 38.7958L46.834 37.9543C46.5305 37.4352 45.7963 37.3252 45.1938 37.7087Z" fill="#3A556A"/>
<path d="M40.7151 40.4901C40.1131 40.8738 39.8712 41.6054 40.1749 42.1241L40.1755 42.1252L40.6681 42.9666C40.9725 43.4848 41.7071 43.5931 42.3084 43.2089C42.9088 42.8253 43.1502 42.0953 42.8479 41.5772L42.3553 40.7358C42.0515 40.2168 41.3173 40.1068 40.7151 40.4901Z" fill="#3A556A"/>
</svg>
