<svg width="81" height="85" viewBox="0 0 81 85" fill="none" xmlns="http://www.w3.org/2000/svg">
<path d="M38.8616 2.11386C39.3167 1.7185 39.8993 1.5008 40.5021 1.5008C41.1049 1.5008 41.6875 1.7185 42.1425 2.11386L50.2635 9.1676C50.5165 9.38751 50.811 9.55435 51.1297 9.65819C51.4484 9.76203 51.7847 9.80076 52.1187 9.77209L62.841 8.83826C63.4413 8.7867 64.0401 8.95357 64.5272 9.30819C65.0143 9.6628 65.3571 10.1813 65.4924 10.7685L67.9187 21.249C67.9936 21.5765 68.1337 21.8856 68.3307 22.1578C68.5277 22.43 68.7775 22.6597 69.0652 22.8332L78.2867 28.3778C78.8027 28.6885 79.1893 29.175 79.3754 29.7478C79.5615 30.3207 79.5346 30.9415 79.2998 31.4961L75.0975 41.4014C74.9668 41.71 74.8995 42.0417 74.8995 42.3769C74.8995 42.712 74.9668 43.0438 75.0975 43.3524L79.2998 53.2577C79.5358 53.8128 79.5633 54.4345 79.3771 55.0083C79.191 55.5821 78.8037 56.0693 78.2867 56.3802L69.0652 61.9248C68.7779 62.0978 68.5284 62.3269 68.3314 62.5983C68.1345 62.8697 67.9941 63.178 67.9187 63.5048L65.4924 73.9853C65.3571 74.5725 65.0143 75.091 64.5272 75.4456C64.0401 75.8002 63.4413 75.9671 62.841 75.9155L52.1187 74.9817C51.785 74.9524 51.4489 74.9905 51.1302 75.0936C50.8115 75.1968 50.5168 75.3628 50.2635 75.582L42.1384 82.6399C41.6833 83.0353 41.1007 83.253 40.4979 83.253C39.8951 83.253 39.3125 83.0353 38.8575 82.6399L30.7365 75.582C30.4832 75.3628 30.1885 75.1968 29.8698 75.0936C29.5511 74.9905 29.215 74.9524 28.8813 74.9817L18.159 75.9155C17.5587 75.9671 16.9599 75.8002 16.4728 75.4456C15.9857 75.091 15.6429 74.5725 15.5076 73.9853L13.0813 63.5048C13.0064 63.1773 12.8663 62.8682 12.6693 62.596C12.4723 62.3238 12.2225 62.0941 11.9348 61.9206L2.71328 56.376C2.19727 56.0653 1.8107 55.5788 1.62459 55.006C1.43849 54.4331 1.46535 53.8123 1.70025 53.2577L5.90248 43.3524C6.03319 43.0438 6.10054 42.712 6.10054 42.3769C6.10054 42.0417 6.03319 41.71 5.90248 41.4014L1.70025 31.4961C1.4642 30.941 1.43672 30.3192 1.62288 29.7454C1.80904 29.1716 2.19629 28.6845 2.71328 28.3736L11.9348 22.829C12.2221 22.656 12.4716 22.4269 12.6686 22.1555C12.8655 21.884 13.0059 21.5758 13.0813 21.249L15.5076 10.7685C15.6429 10.1813 15.9857 9.6628 16.4728 9.30819C16.9599 8.95357 17.5587 8.7867 18.159 8.83826L28.8813 9.77209C29.2153 9.80076 29.5516 9.76203 29.8703 9.65819C30.189 9.55435 30.4835 9.38751 30.7365 9.1676L38.8616 2.11386V2.11386Z" stroke="#F24E1E" stroke-width="3"/>
<path d="M27.9934 46.5457L36.3311 54.8835L57.1755 34.0391" stroke="#F24E1E" stroke-width="3" stroke-linecap="round" stroke-linejoin="round"/>
</svg>
