<svg width="97" height="253" viewBox="0 0 97 253" fill="none" xmlns="http://www.w3.org/2000/svg">
<path d="M8.45831 13.7344C15.4851 5.21797 33.2529 -7.876 48.1095 7.87935C62.9662 23.6347 42.9231 53.1228 31.0444 65.8974C25.1888 69.4459 12.9755 75.4783 10.9679 71.2201C8.4583 65.8974 6.95256 54.7196 27.531 45.1386C40.7481 39.461 69.2903 33.4286 77.7224 54.7196C81.5704 63.9457 82.2397 85.3786 54.1325 97.3016L18.9985 112.738M18.9985 112.738C5.61412 113.274 -13.6259 106.892 16.4889 77.0751C26.0253 72.4621 49.1134 63.1295 65.1746 62.7037C74.3764 64.6554 92.0772 74.3073 89.2665 97.3016C89.6011 101.915 83.3439 113.376 55.6383 122.319C49.2807 123.738 35.0598 126.683 29.0368 127.109L7.45453 130.303L18.9985 112.738ZM18.9985 112.738C27.781 110.254 48.5086 106.031 61.1593 109.012C76.9728 112.738 83.2435 109.544 95.7914 130.303C97.9663 140.948 96.3937 162.771 72.7033 164.901C49.013 167.03 33.7214 162.949 29.0368 160.642V140.948M29.0368 140.948C46.2692 142.545 83.2435 141.374 93.2818 123.915C98.1336 111.496 98.5017 86.1238 61.1593 83.9947C52.1249 84.3496 32.8514 85.4851 28.033 87.1884L29.0368 124.98C46.6038 126.577 83.5447 134.135 90.7722 151.594C94.6203 161.707 95.8918 182.998 70.1938 187.256C60.6574 187.611 39.0751 186.298 29.0368 178.207M29.0368 140.948V178.207M29.0368 140.948C39.9116 143.61 63.8697 150.955 72.7033 159.046C83.4108 167.917 99.104 189.917 76.2167 206.95C69.0226 209.612 49.9163 211.741 31.0444 198.966M29.0368 178.207L31.0444 198.966M29.0368 178.207C41.0828 186.724 65.6765 207.376 67.6842 221.854C68.5207 230.725 66.2789 249.213 50.6191 252.194C46.6038 252.903 36.6659 252.832 29.0368 246.871L31.0444 198.966" stroke="#FE1FBF"/>
</svg>
