<svg width="25" height="25" viewBox="0 0 25 25" fill="none" xmlns="http://www.w3.org/2000/svg">
<path d="M12.5 25C19.4036 25 25 19.4036 25 12.5C25 5.59644 19.4036 0 12.5 0C5.59644 0 0 5.59644 0 12.5C0 19.4036 5.59644 25 12.5 25ZM13.4567 19.1162L12.9196 16.6427C14.4934 16.2944 15.9406 15.8413 15.8234 14.0839H13.974V7.50119H19.545V13.6536C19.543 18.543 15.9533 18.9408 13.4567 19.1162ZM5.99365 19.1162L5.45502 16.6427C7.02879 16.2944 8.47596 15.8413 8.35877 14.0839H6.5094V7.50119H12.0804V13.6536C12.0784 18.543 8.49021 18.9408 5.99365 19.1162Z" fill="#E4EAE6"/>
</svg>
