<svg width="40" height="40" viewBox="0 0 40 40" fill="none" xmlns="http://www.w3.org/2000/svg">
<g clip-path="url(#clip0_2_262)">
<path d="M-3.65167 44.4433C-3.34667 44.0333 -2.94501 43.4783 -2.62334 43.0817C-1.66001 41.9883 -1.53501 41.845 -0.65834 41.0367C-0.39834 40.8233 -0.0900068 40.5667 0.21166 40.325C-2.01334 42.2083 -2.29667 44.2933 -0.255007 45.5817C-0.258341 45.5817 -0.25834 45.5817 -0.25834 45.585C2.59666 47.305 8.85333 46.9333 13.79 44.73C18.5717 42.5967 20.3367 39.545 17.9767 37.7317C15.905 37.3433 13.435 37.2983 10.8217 37.6483L10.55 37.2L10.775 36.4567C12.3117 36.3183 13.7717 36.3517 15.0317 36.5667C15.3367 36.6183 15.7383 36.7067 16.0383 36.77C16.6183 36.9117 16.9333 36.9967 17.3117 37.1183C17.6983 37.2333 18.0283 37.3483 18.6033 37.5617C19.1667 37.7833 19.41 37.8833 19.8617 38.1083C20.3675 38.3391 20.8589 38.6001 21.3333 38.89C25.0933 41.255 22.755 45.57 16.12 48.5267C9.50333 51.4733 1.07166 51.9367 -2.70667 49.6C-2.70834 49.5967 -2.71334 49.5933 -2.72334 49.59H-2.71667C-4.78001 48.2833 -4.99667 46.3867 -3.65167 44.4433ZM13.5633 60.9767L13.51 58.32L11.6217 56.22C5.38333 57.6333 -0.74834 57.33 -4.15834 55.3217C-4.17001 55.3083 -4.19834 55.295 -4.21001 55.2817C-6.14001 54.0933 -6.61667 52.56 -6.47167 50.8933C-6.92334 53.3317 -6.96001 54.2117 -6.89501 56.2983C-6.81501 57.605 -6.06001 58.81 -4.54167 59.76L-4.53001 59.7733C-0.895007 62.0333 6.67832 62.5233 13.5633 60.9767ZM21.4383 64.0183C12.6333 67.55 1.61333 67.7583 -3.17334 64.49C-2.65641 65.7533 -1.95304 66.9319 -1.08667 67.9867C3.30666 70.9867 13.4217 70.795 21.5 67.5533C26.2283 65.6583 29.2117 63.1367 29.995 60.7733L30.215 60.0617C30.7367 58.2583 30.835 56.7567 30.9183 55.42C30.8233 58.3217 27.405 61.6217 21.4383 64.0183ZM2.00166 70.82C2.27833 71.0833 3.14832 72.1517 7.55666 73.3317C8.74833 73.595 11.7483 74.44 17.29 73.2117L17.3233 72.7067L16.885 72.02C11.7433 73.2367 6.03166 72.83 2.00166 70.82ZM14.725 49.805L19.4067 53.3533C19.4067 53.3533 20.4083 54.075 19.4633 54.5817C18.5217 55.0833 16.1033 56.3117 16.1033 56.3117L13.715 55.42L12.5167 55.9533L14.63 57.7883L14.6467 60.6433L15.8883 60.0917L16.7117 57.68C16.7117 57.68 19.24 56.7067 20.2433 56.34C21.2517 55.9817 21.1167 57.2083 21.1167 57.2083L20.62 63.06L22.27 62.3267L24.9867 54.4317C24.9867 54.4317 26.4267 53.7317 27.44 53.1167C28.4517 52.5017 28.7983 51.4817 28.7983 51.4817C28.7983 51.4817 27.8117 51.0567 26.675 51.3983C25.5383 51.7367 24.0567 52.34 24.0567 52.34L16.37 49.075L14.725 49.805ZM4.81999 38.5783L7.99833 41.11L8.86666 40.98L7.13666 38.7083C7.13666 38.7083 6.75999 38.2383 7.26666 38.1267C7.77666 38.0133 9.06666 37.75 9.06666 37.75L10.0367 38.525L10.69 38.4283L9.94999 37.2517L10.34 35.9467L9.70833 36.0383L8.95999 37.0317C8.95999 37.0317 7.64666 37.155 7.12999 37.1983C6.60999 37.2383 6.83333 36.68 6.83333 36.68L7.82999 34L6.95666 34.1283L4.65666 37.4767C4.65666 37.4767 3.88999 37.6167 3.33499 37.775C2.77833 37.9317 2.48499 38.3617 2.48499 38.3617C2.48499 38.3617 2.89333 38.6917 3.46833 38.68C4.04833 38.6683 4.81999 38.5783 4.81999 38.5783ZM20.5283 71.1083L18.4717 70.0333L17.9983 70.1983L19.2167 71.2883C19.2167 71.2883 19.4767 71.51 19.2033 71.6283C18.93 71.745 18.2333 72.0317 18.2333 72.0317L17.6583 71.775L17.3167 71.8983L17.795 72.4083L17.7483 73.1533L18.105 73.03L18.3717 72.425C18.3717 72.425 19.095 72.21 19.3833 72.1333C19.67 72.055 19.605 72.3917 19.605 72.3917L19.3333 74L19.8083 73.835L20.74 71.7083C20.74 71.7083 21.1517 71.5467 21.4467 71.3983C21.7417 71.25 21.8583 70.9767 21.8583 70.9767C21.8583 70.9767 21.5967 70.8333 21.2733 70.905C20.9483 70.9733 20.5283 71.1083 20.5283 71.1083Z" fill="#9747FF"/>
</g>
<defs>
<clipPath id="clip0_2_262">
<rect width="40" height="40" fill="white"/>
</clipPath>
</defs>
</svg>
