<svg width="36" height="40" viewBox="0 0 36 40" fill="none" xmlns="http://www.w3.org/2000/svg">
<path d="M26 12.3318C25.405 12.7273 24.771 12.9894 24.11 13.1167C24.79 12.5015 25.309 11.5348 25.553 10.3697C24.919 10.9424 24.219 11.347 23.473 11.5727C22.871 10.6015 22.013 10 21.077 10C19.261 10 17.799 12.2333 17.799 14.9712C17.799 15.3652 17.821 15.7439 17.875 16.1045C15.148 15.903 12.735 13.9227 11.114 10.9061C10.831 11.65 10.665 12.5015 10.665 13.4182C10.665 15.1394 11.25 16.6652 12.122 17.5485C11.595 17.5333 11.078 17.3015 10.64 16.9364C10.64 16.9515 10.64 16.9712 10.64 16.9909C10.64 19.4061 11.777 21.4121 13.268 21.8742C13.001 21.9848 12.71 22.0379 12.408 22.0379C12.198 22.0379 11.986 22.0197 11.787 21.953C12.212 23.9212 13.418 25.3682 14.852 25.4152C13.736 26.7379 12.319 27.5348 10.785 27.5348C10.516 27.5348 10.258 27.5167 10 27.4667C11.453 28.8864 13.175 29.697 15.032 29.697C21.068 29.697 24.368 22.1212 24.368 15.5545C24.368 15.3348 24.363 15.1227 24.356 14.9121C25.007 14.2121 25.554 13.3379 26 12.3318Z" fill="#080809"/>
</svg>
