<svg width="88" height="91" viewBox="0 0 88 91" fill="none" xmlns="http://www.w3.org/2000/svg">
<path d="M18.8276 25.1035C16.3451 25.1035 13.9183 24.3673 11.8542 22.9881C9.7901 21.6089 8.18132 19.6486 7.23131 17.3551C6.2813 15.0615 6.03273 12.5378 6.51704 10.103C7.00135 7.66821 8.19679 5.43171 9.95218 3.67632C11.7076 1.92093 13.9441 0.725495 16.3789 0.241183C18.8137 -0.243128 21.3374 0.00543842 23.6309 0.955449C25.9245 1.90546 27.8848 3.51424 29.264 5.57837C30.6432 7.64249 31.3793 10.0692 31.3793 12.5517C31.3793 15.8807 30.0569 19.0732 27.703 21.4271C25.3491 23.781 22.1565 25.1035 18.8276 25.1035ZM18.8276 6.27587C17.5863 6.27587 16.373 6.64394 15.3409 7.33354C14.3088 8.02314 13.5045 9.0033 13.0294 10.1501C12.5544 11.2968 12.4302 12.5587 12.6723 13.7761C12.9145 14.9935 13.5122 16.1117 14.3899 16.9894C15.2676 17.8671 16.3858 18.4648 17.6032 18.707C18.8206 18.9492 20.0825 18.8249 21.2293 18.3499C22.376 17.8749 23.3562 17.0705 24.0458 16.0384C24.7354 15.0064 25.1034 13.793 25.1034 12.5517C25.1034 10.8873 24.4422 9.29098 23.2653 8.11403C22.0883 6.93707 20.492 6.27587 18.8276 6.27587ZM69.0345 25.1035C66.552 25.1035 64.1252 24.3673 62.0611 22.9881C59.997 21.6089 58.3882 19.6486 57.4382 17.3551C56.4882 15.0615 56.2396 12.5378 56.7239 10.103C57.2082 7.66821 58.4037 5.43171 60.1591 3.67632C61.9145 1.92093 64.151 0.725495 66.5858 0.241183C69.0206 -0.243128 71.5443 0.00543842 73.8378 0.955449C76.1313 1.90546 78.0917 3.51424 79.4709 5.57837C80.8501 7.64249 81.5862 10.0692 81.5862 12.5517C81.5862 15.8807 80.2638 19.0732 77.9099 21.4271C75.556 23.781 72.3634 25.1035 69.0345 25.1035ZM69.0345 6.27587C67.7932 6.27587 66.5799 6.64394 65.5478 7.33354C64.5157 8.02314 63.7113 9.0033 63.2363 10.1501C62.7613 11.2968 62.6371 12.5587 62.8792 13.7761C63.1214 14.9935 63.7191 16.1117 64.5968 16.9894C65.4745 17.8671 66.5927 18.4648 67.8101 18.707C69.0275 18.9492 70.2894 18.8249 71.4362 18.3499C72.5829 17.8749 73.5631 17.0705 74.2527 16.0384C74.9423 15.0064 75.3103 13.793 75.3103 12.5517C75.3103 10.8873 74.6491 9.29098 73.4722 8.11403C72.2952 6.93707 70.6989 6.27587 69.0345 6.27587ZM75.3103 91H62.7586C61.0942 91 59.4979 90.3388 58.3209 89.1618C57.144 87.9849 56.4828 86.3886 56.4828 84.7241V62.7586H62.7586V84.7241H75.3103V56.4828H81.5862V37.6552C81.5862 36.8229 81.2556 36.0248 80.6671 35.4363C80.0787 34.8479 79.2805 34.5172 78.4483 34.5172H58.3028L43.931 59.6207L29.5593 34.5172H9.41379C8.58156 34.5172 7.78342 34.8479 7.19494 35.4363C6.60647 36.0248 6.27586 36.8229 6.27586 37.6552V56.4828H12.5517V84.7241H25.1034V62.7586H31.3793V84.7241C31.3793 86.3886 30.7181 87.9849 29.5412 89.1618C28.3642 90.3388 26.7679 91 25.1034 91H12.5517C10.8873 91 9.29097 90.3388 8.11402 89.1618C6.93707 87.9849 6.27586 86.3886 6.27586 84.7241V62.7586C4.6114 62.7586 3.01511 62.0974 1.83816 60.9205C0.661205 59.7435 0 58.1472 0 56.4828V37.6552C0 35.1585 0.991808 32.764 2.75724 30.9986C4.52267 29.2332 6.9171 28.2414 9.41379 28.2414H33.1993L43.931 47.069L54.6628 28.2414H78.4483C80.945 28.2414 83.3394 29.2332 85.1048 30.9986C86.8703 32.764 87.8621 35.1585 87.8621 37.6552V56.4828C87.8621 58.1472 87.2009 59.7435 86.0239 60.9205C84.847 62.0974 83.2507 62.7586 81.5862 62.7586V84.7241C81.5862 86.3886 80.925 87.9849 79.7481 89.1618C78.5711 90.3388 76.9748 91 75.3103 91Z" fill="#F24E1E"/>
</svg>
