<svg width="139" height="39" viewBox="0 0 139 39" fill="none" xmlns="http://www.w3.org/2000/svg">
<ellipse cx="18" cy="19.0303" rx="18" ry="19.0303" fill="#F5F5F5"/>
<g clip-path="url(#clip0_2_295)">
<path d="M24.6544 12.8463C24.2855 12.7322 15.2625 11.7824 12.0936 16.3086C10.6902 18.3137 10.6691 21.0624 12.0233 24.4777C11.6798 25.2315 11.3791 26.0256 11.134 26.8635C11.0595 27.1181 11.1943 27.388 11.4348 27.4665C11.4796 27.4813 11.5251 27.4882 11.5699 27.4882C11.7644 27.4882 11.9449 27.3554 12.0052 27.1485C14.4204 18.8931 22.2693 14.8993 24.6763 13.8904C24.9105 13.7921 25.2235 13.0224 24.6544 12.8463Z" fill="#84829A"/>
<path d="M13.4719 25.5108C14.7783 26.0903 16.0845 26.3872 17.2992 26.3872C18.391 26.3872 19.4092 26.1499 20.2866 25.6687C22.0524 24.7002 23.1315 22.8477 23.407 20.3109C23.6877 17.7255 24.0372 16.1061 24.3288 15.1154C21.7335 16.3811 16.1687 19.6618 13.4719 25.5108Z" fill="#84829A"/>
</g>
<ellipse cx="121" cy="19.0303" rx="18" ry="19.0303" fill="#F5F5F5"/>
<path d="M126.343 14.0005L120.026 20.7043C119.953 20.6599 119.877 20.6228 119.798 20.5933L115.627 19.1008C115.501 19.0674 115.389 18.9904 115.309 18.882C115.229 18.7736 115.186 18.6401 115.186 18.5026C115.186 18.3651 115.229 18.2316 115.309 18.1232C115.389 18.0148 115.501 17.9378 115.627 17.9044L125.976 14.0128C126.043 13.9885 126.114 13.9761 126.186 13.9758C126.239 13.9749 126.292 13.9833 126.343 14.0005Z" fill="#84829A"/>
<path d="M126.746 14.8269L123.065 25.7799C123.024 25.9075 122.945 26.0176 122.84 26.0934C122.735 26.1691 122.609 26.2063 122.482 26.1993C122.353 26.2055 122.226 26.1665 122.12 26.0884C122.015 26.0103 121.937 25.8975 121.898 25.7676L120.51 21.358C120.482 21.2746 120.447 21.194 120.405 21.1175L126.758 14.4384C126.793 14.5658 126.789 14.7021 126.746 14.8269Z" fill="#84829A"/>
<ellipse cx="72" cy="19.0303" rx="18" ry="19.0303" fill="#F5F5F5"/>
<g clip-path="url(#clip1_2_295)">
<path d="M77.5009 11.6296C77.4232 11.6296 77.3466 11.6487 77.2771 11.6854L73.4882 13.6888L69.2038 11.6753C69.1968 11.6722 69.1888 11.6716 69.1813 11.6685C69.162 11.6608 69.1423 11.6545 69.1223 11.6494C69.1024 11.6438 69.0822 11.6393 69.0618 11.6362C69.0212 11.6327 68.9804 11.6327 68.9398 11.6362C68.9194 11.6393 68.8992 11.6438 68.8793 11.6494C68.8593 11.6545 68.8396 11.6608 68.8203 11.6685C68.8128 11.6716 68.8048 11.6721 68.7978 11.6753L64.2979 13.7898C64.1172 13.8746 64.0008 14.064 64.0009 14.2729V25.9024C64.0009 26.0812 64.0865 26.2479 64.2283 26.3454C64.3702 26.443 64.5491 26.4581 64.7038 26.3855L69.0008 24.3662L73.2977 26.3855C73.3052 26.3887 73.3132 26.3855 73.3207 26.3903C73.4417 26.4475 73.5807 26.4443 73.6992 26.3813C73.7072 26.3776 73.7162 26.3813 73.7242 26.3755L77.7241 24.261C77.8936 24.1715 78.0007 23.9883 78.0006 23.7879V12.1585C78.0008 11.8665 77.777 11.6297 77.5009 11.6296ZM68.5008 23.4443L65.0008 25.0888V14.6165L68.5008 12.972V23.4443ZM73.0007 25.0888L69.5008 23.4443V12.972L73.0007 14.6165V25.0888ZM77.0006 23.4612L74.0007 25.0471V14.5996L77.0006 13.0138V23.4612Z" fill="#84829A"/>
</g>
<defs>
<clipPath id="clip0_2_295">
<rect width="14" height="14.8013" fill="white" transform="translate(11 12.6869)"/>
</clipPath>
<clipPath id="clip1_2_295">
<rect width="14" height="14.8013" fill="white" transform="translate(64 11.6296)"/>
</clipPath>
</defs>
</svg>
