<svg width="40" height="40" viewBox="0 0 40 40" fill="none" xmlns="http://www.w3.org/2000/svg">
<path d="M8.94923 22.7027C4.36831 22.7027 0.657969 26.573 0.657969 31.3514C0.657969 36.1297 4.36831 40 8.94923 40C13.5302 40 17.2405 36.1297 17.2405 31.3514C17.2405 26.573 13.5302 22.7027 8.94923 22.7027ZM21.3447 24.8649V37.8378C21.3447 39.027 22.2774 40 23.4175 40H35.8544C36.9944 40 37.9272 39.027 37.9272 37.8378V24.8649C37.9272 23.6757 36.9944 22.7027 35.8544 22.7027H23.4175C22.2774 22.7027 21.3447 23.6757 21.3447 24.8649ZM7.10442 2.31351L0.264134 15.1568C-0.502807 16.6054 0.492144 18.3784 2.06748 18.3784H15.7481C17.3234 18.3784 18.3184 16.6054 17.5514 15.1568L10.7111 2.31351C10.5317 1.97906 10.27 1.70056 9.95299 1.50671C9.63601 1.31287 9.27521 1.21068 8.90777 1.21068C8.54033 1.21068 8.17954 1.31287 7.86256 1.50671C7.54558 1.70056 7.28388 1.97906 7.10442 2.31351ZM34.2998 0C32.1026 0 30.548 1.21081 29.6359 2.52973C28.7239 1.21081 27.1693 0 24.9721 0C21.7385 0 19.2719 2.76757 19.2719 5.94595C19.2719 9.9027 23.4797 12.8 28.2886 17.1459C28.6641 17.4809 29.1419 17.665 29.6359 17.665C30.13 17.665 30.6078 17.4809 30.9833 17.1459C35.7922 12.8 40 9.9027 40 5.94595C40 2.76757 37.5334 0 34.2998 0Z" fill="#85B6FF"/>
</svg>
