<svg width="100" height="100" viewBox="0 0 100 100" fill="none" xmlns="http://www.w3.org/2000/svg">
<path d="M50 91.6666C44.2361 91.6666 38.8194 90.5721 33.75 88.3833C28.6805 86.1971 24.2708 83.2291 20.5208 79.4791C16.7708 75.7291 13.8028 71.3194 11.6166 66.2499C9.42776 61.1805 8.33331 55.7638 8.33331 49.9999C8.33331 44.236 9.42776 38.8194 11.6166 33.7499C13.8028 28.6805 16.7708 24.2708 20.5208 20.5208C24.2708 16.7708 28.6805 13.8013 33.75 11.6124C38.8194 9.42631 44.2361 8.33325 50 8.33325C60.1389 8.33325 69.0097 11.5096 76.6125 17.8624C84.218 24.218 88.9583 32.1874 90.8333 41.7708H82.2916C80.9722 36.7013 78.5944 32.1694 75.1583 28.1749C71.7194 24.1833 67.5 21.1805 62.5 19.1666V20.8333C62.5 23.1249 61.6847 25.086 60.0541 26.7166C58.4208 28.3499 56.4583 29.1666 54.1666 29.1666H45.8333V37.4999C45.8333 38.6805 45.4347 39.6694 44.6375 40.4666C43.8375 41.2666 42.8472 41.6666 41.6666 41.6666H33.3333V49.9999H41.6666V62.4999H37.5L17.5 42.4999C17.2916 43.7499 17.1 44.9999 16.925 46.2499C16.7528 47.4999 16.6666 48.7499 16.6666 49.9999C16.6666 59.0971 19.8611 66.9096 26.25 73.4374C32.6389 79.9652 40.5555 83.2638 50 83.3333V91.6666ZM85 86.6666L74.5833 76.2499C73.125 77.0833 71.5625 77.7777 69.8958 78.3333C68.2291 78.8888 66.4583 79.1666 64.5833 79.1666C59.375 79.1666 54.9472 77.3444 51.3 73.6999C47.6555 70.0527 45.8333 65.6249 45.8333 60.4166C45.8333 55.2083 47.6555 50.7805 51.3 47.1333C54.9472 43.4888 59.375 41.6666 64.5833 41.6666C69.7916 41.6666 74.2194 43.4888 77.8666 47.1333C81.5111 50.7805 83.3333 55.2083 83.3333 60.4166C83.3333 62.2916 83.0555 64.0624 82.5 65.7291C81.9444 67.3958 81.25 68.9583 80.4166 70.4166L90.8333 80.8333C91.5972 81.5971 91.9791 82.5694 91.9791 83.7499C91.9791 84.9305 91.5972 85.9027 90.8333 86.6666C90.0694 87.4305 89.0972 87.8124 87.9166 87.8124C86.7361 87.8124 85.7639 87.4305 85 86.6666ZM64.5833 70.8333C67.5 70.8333 69.9653 69.8263 71.9791 67.8124C73.993 65.7985 75 63.3333 75 60.4166C75 57.4999 73.993 55.0346 71.9791 53.0208C69.9653 51.0069 67.5 49.9999 64.5833 49.9999C61.6666 49.9999 59.2014 51.0069 57.1875 53.0208C55.1736 55.0346 54.1666 57.4999 54.1666 60.4166C54.1666 63.3333 55.1736 65.7985 57.1875 67.8124C59.2014 69.8263 61.6666 70.8333 64.5833 70.8333Z" fill="#F24E1E"/>
</svg>
