<svg width="40" height="40" viewBox="0 0 40 40" fill="none" xmlns="http://www.w3.org/2000/svg">
<path d="M27.8432 13.32C28.5532 14.862 29.0368 16.5886 29.2269 18.4558H24.3451C23.3625 12.7063 17.743 9.44122 13.1867 12.5447C8.1846 15.9518 8.17593 24.5062 13.16 27.9318C13.0329 30.7344 13.6519 35.7019 19.4008 36.7507V40H15.2862L13.9214 34.4002C12.9714 34.114 12.029 33.6861 11.1098 33.1026L6.47468 36.3018L3.71617 33.0427L6.22218 27.5111C5.73583 26.5016 5.35415 25.4266 5.08538 24.3093L0 22.6772V18.0602L5.0582 16.3049C5.31788 15.1908 5.68929 14.1081 6.17382 13.0837L3.60125 7.64952L6.35968 4.39058L10.9959 7.4676C11.8803 6.89246 12.7875 6.46131 13.7024 6.164L15.1329 0H19.0408L20.5128 6.29322C21.3718 6.60421 22.2003 7.02256 22.9842 7.54116L27.8523 4.2548L30.6107 7.51384L27.8432 13.32ZM39.9215 25.3957C38.9285 17.4332 29.158 17.0452 26.6528 25.9064H20.8686L19.6284 29.2592L23.4879 29.2488C22.7043 30.7319 21.6587 31.6961 20.1023 31.446C17.1046 30.7287 17.0587 25.8986 19.5399 23.9791C21.1175 22.549 23.17 23.4979 23.5475 24.8154L27.1018 23.6474C25.9733 19.868 22.71 18.3495 19.401 19.6418C17.319 20.4929 13.7971 23.8644 14.2452 29.3204C14.8572 35.0127 19.6158 36.8239 23.1208 34.7468C24.6 33.8702 25.8413 32.3328 26.6016 30.4571C27.888 35.7311 32.6997 36.7612 36.2216 34.3287C39.5039 32.0617 40.2744 28.2258 39.9215 25.3957ZM34.3835 31.0234C32.2246 32.2896 30.5231 30.9656 30.0838 28.9462C29.6711 27.0486 30.3375 24.0869 33.0117 23.3655C36.9364 22.3066 37.8434 28.9939 34.3835 31.0234Z" fill="#F24E1E"/>
</svg>
