<svg width="58" height="53" viewBox="0 0 58 53" fill="none" xmlns="http://www.w3.org/2000/svg">
<path d="M8.50041 17.0458L3.46046 17.0508C3.46046 17.0508 1.32672 13.3637 1.13831 13.0747C0.888669 12.701 0.328151 12.7608 0.144452 12.7907C-0.171134 12.8355 0.078509 13.3736 0.431777 13.9117C0.785044 14.4499 2.28761 17.1155 2.28761 17.1155V53H55.6169L55.6593 17.2351C55.6593 17.2351 57.5339 13.9765 57.7176 13.6527C57.9013 13.3288 58.1792 12.8106 57.8401 12.7907C57.4727 12.7707 57.0488 12.701 56.6861 13.3039C56.2716 13.9965 54.5288 16.8714 54.5288 16.8714H49.4418V11.3009H41.6228C41.6228 11.3009 41.3449 -0.0793042 28.8345 0.000416902C16.3288 0.0851206 16.4701 11.2909 16.4701 11.2909H8.56635C8.56635 11.2959 8.50041 16.9461 8.50041 17.0458Z" fill="#E94B8B"/>
</svg>
