<svg width="1170" height="366" viewBox="0 0 1170 366" fill="none" xmlns="http://www.w3.org/2000/svg">
<path opacity="0.2" d="M1170 20C1170 8.9543 1161.05 0 1150 0H129C57.7552 0 0 57.7553 0 129V345.44C0 356.486 8.95435 365.44 20 365.44H1150C1161.05 365.44 1170 356.486 1170 345.44V20Z" fill="#DFD7F9"/>
<g opacity="0.1">
<mask id="mask0_2_545" style="mask-type:alpha" maskUnits="userSpaceOnUse" x="906" y="0" width="264" height="316">
<path d="M906.5 0.5H1146C1158.98 0.5 1169.5 11.0213 1169.5 24V315.127H956C928.662 315.127 906.5 292.965 906.5 265.627V0.5Z" fill="url(#paint0_linear_2_545)" stroke="#6246E5"/>
</mask>
<g mask="url(#mask0_2_545)">
<path d="M1236.82 160.111C1236.82 205.558 1195.77 242.489 1145.01 242.489C1094.26 242.489 1053.21 205.558 1053.21 160.111C1053.21 114.664 1094.26 77.7332 1145.01 77.7332C1195.77 77.7332 1236.82 114.664 1236.82 160.111Z" stroke="#6246E5"/>
<path d="M1240.46 151.387C1240.46 202.254 1194.52 243.579 1137.73 243.579C1080.94 243.579 1034.99 202.254 1034.99 151.387C1034.99 100.52 1080.94 59.1943 1137.73 59.1943C1194.52 59.1943 1240.46 100.52 1240.46 151.387Z" stroke="#6246E5"/>
<path d="M1244.11 144.299C1244.11 199.984 1193.81 245.216 1131.66 245.216C1069.5 245.216 1019.21 199.984 1019.21 144.299C1019.21 88.6137 1069.5 43.3826 1131.66 43.3826C1193.81 43.3826 1244.11 88.6137 1244.11 144.299Z" stroke="#6246E5"/>
<path d="M1246.53 133.939C1246.53 193.84 1192.43 242.489 1125.58 242.489C1058.73 242.489 1004.63 193.84 1004.63 133.939C1004.63 74.0377 1058.73 25.3889 1125.58 25.3889C1192.43 25.3889 1246.53 74.0377 1246.53 133.939Z" stroke="#6246E5"/>
<path d="M1248.96 123.852C1248.96 187.819 1191.19 239.763 1119.81 239.763C1048.43 239.763 990.664 187.819 990.664 123.852C990.664 59.8855 1048.43 7.94116 1119.81 7.94116C1191.19 7.94116 1248.96 59.8855 1248.96 123.852Z" stroke="#6246E5"/>
<path d="M1252 112.402C1252 182.692 1188.52 239.763 1110.1 239.763C1031.68 239.763 968.195 182.692 968.195 112.402C968.195 42.1116 1031.68 -14.9592 1110.1 -14.9592C1188.52 -14.9592 1252 42.1116 1252 112.402Z" stroke="#6246E5"/>
</g>
</g>
<g opacity="0.1">
<mask id="mask1_2_545" style="mask-type:alpha" maskUnits="userSpaceOnUse" x="-87" y="41" width="480" height="325">
<rect x="392.5" y="41.8025" width="323.137" height="479" transform="rotate(90 392.5 41.8025)" fill="url(#paint1_linear_2_545)" stroke="#6246E5"/>
</mask>
<g mask="url(#mask1_2_545)">
<path d="M149.505 448.82C80.1206 448.82 23.966 398.256 23.966 335.991C23.966 273.726 80.1207 223.162 149.505 223.162C218.89 223.162 275.045 273.726 275.045 335.991C275.045 398.256 218.89 448.82 149.505 448.82Z" fill="#F9F9F9" stroke="#6246E5"/>
<path d="M162.773 453.294C85.145 453.294 22.308 396.721 22.308 327.044C22.308 257.367 85.1451 200.794 162.773 200.794C240.401 200.794 303.238 257.367 303.238 327.044C303.238 396.721 240.401 453.294 162.773 453.294Z" stroke="#6246E5"/>
<path d="M173.552 457.768C88.5968 457.768 19.8198 395.854 19.8198 319.588C19.8198 243.323 88.5968 181.409 173.552 181.409C258.508 181.409 327.285 243.323 327.285 319.588C327.285 395.854 258.508 457.768 173.552 457.768Z" stroke="#6246E5"/>
<path d="M189.308 460.75C97.9412 460.75 23.9667 394.163 23.9667 312.132C23.9667 230.101 97.9412 163.514 189.308 163.514C280.675 163.514 354.649 230.101 354.649 312.132C354.649 394.163 280.675 460.75 189.308 460.75Z" stroke="#6246E5"/>
<path d="M204.648 463.732C107.099 463.732 28.1123 392.638 28.1123 305.049C28.1123 217.459 107.099 146.366 204.648 146.366C302.197 146.366 381.184 217.459 381.184 305.049C381.184 392.638 302.197 463.732 204.648 463.732Z" stroke="#6246E5"/>
<path d="M222.061 467.46C114.895 467.46 28.1123 389.357 28.1123 293.12C28.1123 196.883 114.895 118.78 222.061 118.78C329.228 118.78 416.01 196.883 416.01 293.12C416.01 389.357 329.228 467.46 222.061 467.46Z" stroke="#6246E5"/>
</g>
</g>
<defs>
<linearGradient id="paint0_linear_2_545" x1="1093.24" y1="8.85527" x2="940.023" y2="331.77" gradientUnits="userSpaceOnUse">
<stop stop-color="#747DEF"/>
<stop offset="1" stop-color="#5E3BE1"/>
</linearGradient>
<linearGradient id="paint1_linear_2_545" x1="622.891" y1="54.7694" x2="360.079" y2="501.955" gradientUnits="userSpaceOnUse">
<stop stop-color="#747DEF"/>
<stop offset="1" stop-color="#5E3BE1"/>
</linearGradient>
</defs>
</svg>
